# xmcd
#
# Track frame offsets: 
#        150
#        15486
#        30582
#        44676
#        59291
#        73681
#        87461
#        101268
#        114323
#        127161
#        141522
#        156230
#        169893
#        184346
#        198813
#        215749
#        227769
#        240578
#        256132
#        271569
#        284452
#        298869
#
# Disc length: 4144 seconds
#
# Revision: 1
# Processed by: cddbd v1.5.2PL0 Copyright (c) Steve Scherf et al.
# Submitted via: ExactAudioCopyFreeDBPlugin 1.0
#
DISCID=4a102e16
DTITLE=Teddy Wilson - Swing Time 069 - Teddy Wilson 02 - 1936
DYEAR=1936
DGENRE=Jazz
TTITLE0=It's Like Reaching For The Moon
TTITLE1=These Foolish Things
TTITLE2=Why Do I Lie To Myself Over You
TTITLE3=I Cried For You
TTITLE4=Guess Who
TTITLE5=You Came To My Rescue
TTITLE6=Here's Love In Your Eyes
TTITLE7=You Turned The Tables On Me
TTITLE8=Sing, Baby, Sing!
TTITLE9=Easy To Love
TTITLE10=With Thee I Swing
TTITLE11=The Way You Look Tonight
TTITLE12=Who Loves You
TTITLE13=Who Loves You
TTITLE14=Pennies From Heaven
TTITLE15=That's Life I Guess
TTITLE16=Sailin'
TTITLE17=I Can't Give You Anything But Love
TTITLE18=I'm With You (Right Or Wrong)
TTITLE19=Where The Lazy River Goes By
TTITLE20=Tea For Two
TTITLE21=I'll See You In My Dreams
EXTD=YEAR: 2006
EXTT0=
EXTT1=
EXTT2=
EXTT3=
EXTT4=
EXTT5=
EXTT6=
EXTT7=
EXTT8=
EXTT9=
EXTT10=
EXTT11=
EXTT12=
EXTT13=
EXTT14=
EXTT15=
EXTT16=
EXTT17=
EXTT18=
EXTT19=
EXTT20=
EXTT21=
PLAYORDER=
